<svg width="129" height="30" viewBox="0 0 129 30" fill="none" xmlns="http://www.w3.org/2000/svg">
<rect width="128.356" height="30" fill="#0B273E"/>
<path d="M12.5221 4.3916C12.851 4.30239 13.4989 4.17355 13.9674 4.10417C14.4358 4.02487 15.2232 3.98523 15.7116 4.00505C16.2 4.02487 16.8579 4.08434 17.1569 4.14381C17.4559 4.20328 17.8845 4.29248 18.1038 4.36186C18.3231 4.42133 18.9311 4.62947 19.4494 4.81779C19.9677 5.00611 20.5059 5.24398 20.6455 5.34309C20.785 5.44221 21.0043 5.54132 21.1438 5.56115C21.3332 5.58097 21.4229 5.5215 21.5625 5.24398C21.6622 5.05566 21.8216 4.71867 21.9113 4.51053C22.011 4.29248 22.1506 4.10417 22.2104 4.08434C22.31 4.06452 22.3399 4.27266 22.3399 4.9169C22.3399 5.40256 22.2801 6.2153 22.2004 6.73069C22.1206 7.24609 21.9313 8.09847 21.7917 8.61387C21.6522 9.12926 21.5027 9.66448 21.4728 9.80324C21.4528 9.942 21.2336 10.4475 20.9943 10.943C20.7651 11.4386 20.5458 11.9441 20.5159 12.0829C20.486 12.2216 19.9976 13.0245 19.4394 13.8669C18.8813 14.7094 18.054 15.8195 17.6154 16.3349C17.1669 16.8503 16.4692 17.5639 16.0605 17.9108C15.6518 18.2676 14.994 18.7929 14.6152 19.0803C14.2365 19.3678 13.5786 19.7741 13.17 19.9922C12.7613 20.2003 11.9938 20.5274 11.4755 20.7058C10.6582 20.9833 10.3891 21.023 9.53188 21.023C8.90394 21.0329 8.27599 20.9635 7.83743 20.8545C7.45867 20.7554 6.9005 20.5571 6.60148 20.4184C6.24265 20.2499 5.84396 19.9228 5.41536 19.4669C5.06651 19.0902 4.67778 18.5451 4.53824 18.2775C4.40866 18.0099 4.23922 17.4251 4.14951 16.989C4.06977 16.5529 4 15.7501 4 15.205C4 14.6598 4.04984 13.9462 4.10964 13.6191C4.16945 13.2921 4.27909 12.846 4.33889 12.6379C4.39869 12.4199 4.49837 12.2315 4.5482 12.2117C4.60801 12.1919 4.67778 12.5586 4.70768 13.0938C4.74755 13.6092 4.85719 14.194 4.9469 14.4121C5.04657 14.6301 5.24592 14.9968 5.4054 15.2248C5.56487 15.4627 5.93367 15.8294 6.21275 16.0375C6.50181 16.2556 7.03008 16.5232 7.3889 16.6421C7.74773 16.7511 8.35573 16.8998 8.73449 16.9593C9.27273 17.0485 9.63156 17.0485 10.2794 16.9494C10.7479 16.88 11.3958 16.7313 11.7247 16.6223C12.0536 16.5133 12.7314 16.2358 13.2198 15.9979C13.7082 15.76 14.366 15.3834 14.6651 15.1554C14.9641 14.9374 15.3827 14.6004 15.5821 14.4121C15.7914 14.2237 15.9608 14.0255 15.9608 13.966C15.9608 13.9066 15.921 13.8669 15.8612 13.8669C15.8013 13.8669 15.5023 14.0255 15.1933 14.2138C14.8744 14.4021 14.2365 14.6995 13.768 14.868C12.9906 15.1554 12.8211 15.1851 11.7247 15.1752C10.9173 15.1752 10.3791 15.1257 10.0801 15.0266C9.8309 14.9473 9.43221 14.7689 9.19299 14.64C8.94381 14.5211 8.52518 14.1841 8.24609 13.9165C7.96701 13.6489 7.61815 13.1731 7.46864 12.8758C7.30916 12.5784 7.11978 12.0036 7.04004 11.617C6.9603 11.2206 6.89053 10.7151 6.89053 10.497C6.89053 10.279 6.9304 10.0213 6.98024 9.93209C7.03008 9.83297 7.16962 9.41669 7.29919 9.01032C7.42877 8.60395 7.69789 8.01918 7.89724 7.72184C8.08662 7.42449 8.49528 6.9091 8.7943 6.59193C9.09332 6.27477 9.58172 5.83867 9.88074 5.64044C10.1798 5.44221 10.7678 5.11513 11.1765 4.9169C11.5852 4.71867 12.1932 4.4808 12.5221 4.3916Z" fill="white"/>
<path d="M22.8483 8.12821C22.928 7.73175 22.9978 7.36503 23.0177 7.31547C23.0376 7.26591 23.1373 7.26591 23.247 7.32538C23.3466 7.37494 23.6457 7.68219 23.9148 7.98945C24.1739 8.30661 24.5627 8.85174 24.772 9.20855C24.9912 9.56536 25.2205 9.92217 25.2903 10.0015C25.36 10.0808 25.5694 10.5763 25.7587 11.0917C25.9581 11.6071 26.1774 12.3207 26.2571 12.6775C26.3468 13.0344 26.4664 13.7876 26.5362 14.3625C26.6259 15.1951 26.6259 15.5915 26.5262 16.3448C26.4564 16.8602 26.3269 17.6035 26.2272 17.9802C26.1275 18.3568 25.9282 18.9614 25.7787 19.3182C25.6292 19.675 25.3501 20.2499 25.1507 20.6067C24.9613 20.9635 24.5826 21.5384 24.3234 21.8952C24.0643 22.252 23.546 22.8368 23.1672 23.1936C22.7984 23.5504 22.2203 24.0361 21.8914 24.264C21.5625 24.492 21.2136 24.6704 21.1239 24.6704C21.0242 24.6704 20.9445 24.6406 20.9445 24.5911C20.9545 24.5514 21.2136 24.2541 21.5226 23.927C21.8316 23.5999 22.3499 22.9557 22.6589 22.4899C22.9679 22.024 23.3965 21.2906 23.6058 20.8545C23.8151 20.4184 24.0743 19.794 24.1739 19.4669C24.2736 19.1398 24.4032 18.7731 24.443 18.6442C24.4929 18.5253 24.5327 18.2676 24.5327 18.0793C24.5327 17.891 24.5028 17.7324 24.463 17.7324C24.4131 17.7324 24.2238 18.0793 24.0344 18.5055C23.855 18.9218 23.4463 19.6948 23.1473 20.2102C22.8483 20.7256 22.3599 21.469 22.0509 21.8456C21.7419 22.2223 21.2435 22.7872 20.9445 23.0945C20.6455 23.4017 19.9677 23.927 19.4494 24.264C18.9311 24.601 18.1636 25.0074 17.7549 25.166C17.3463 25.3344 16.9376 25.5029 16.8579 25.5525C16.7781 25.5921 16.4393 25.7111 16.1103 25.8102C15.6618 25.949 15.1535 25.9886 14.0172 25.9985C13.0005 26.0084 12.3925 25.9688 12.1234 25.8796C11.9041 25.8003 11.3659 25.6021 10.9273 25.4336C10.4888 25.2651 9.88076 24.9776 9.58174 24.7893C9.28272 24.601 8.84415 24.2838 8.60494 24.0856C8.36572 23.8874 8.20624 23.6891 8.25608 23.6495C8.29595 23.6099 8.60494 23.6198 8.93386 23.6792C9.26278 23.7288 9.86082 23.7784 10.2595 23.7784C10.6482 23.7784 11.2164 23.7288 11.5054 23.6693C11.7845 23.6099 12.2729 23.481 12.5719 23.3819C12.871 23.2927 13.3893 23.0746 13.7182 22.9161C14.0471 22.7575 14.5654 22.47 14.8644 22.2718C15.1634 22.0637 15.7216 21.6474 16.1004 21.3302C16.4791 21.0131 17.1469 20.3292 17.5755 19.8138C18.0141 19.2984 18.6321 18.4857 18.961 18.0099C19.28 17.5242 19.5491 17.1179 19.5491 17.0881C19.5491 17.0584 19.6487 16.8701 19.7783 16.6719C19.9079 16.4637 20.0873 16.0772 20.197 15.7997C20.2966 15.532 20.4561 15.1951 20.5458 15.0563C20.6455 14.9175 20.8249 14.5905 20.9445 14.3129C21.0641 14.0453 21.2236 13.6885 21.2934 13.52C21.3631 13.3515 21.5924 12.7271 21.8017 12.1324C22.001 11.5377 22.2104 10.8638 22.2502 10.6457C22.2901 10.4277 22.4097 9.93209 22.5193 9.55545C22.619 9.17882 22.7685 8.53457 22.8483 8.12821Z" fill="white"/>
<path d="M39.5151 8.42538C39.7344 8.37582 40.1331 8.28662 40.4121 8.24698C40.6813 8.19742 41.369 8.1776 41.9272 8.20733C42.7146 8.23706 43.1432 8.31636 43.7711 8.5245C44.2296 8.68308 44.9074 9.01016 45.2961 9.26785C45.6749 9.51564 46.2131 9.93192 46.4723 10.1995C46.8012 10.5266 46.9408 10.7447 46.9208 10.8933C46.9009 11.0222 46.4723 11.4285 45.7447 12.0133C45.1167 12.5089 44.5287 12.9053 44.4489 12.9053C44.3692 12.9053 44.11 12.717 43.8708 12.5089C43.6416 12.2908 43.213 11.9935 42.9239 11.8547C42.5053 11.6466 42.2561 11.5871 41.6581 11.5772C41.1497 11.5772 40.7411 11.6367 40.3723 11.7655C40.0135 11.8944 39.6148 12.1521 39.236 12.5089C38.8772 12.8459 38.5383 13.282 38.3489 13.6487C38.0798 14.1938 38.0598 14.3128 38.0897 15.0859C38.1097 15.7301 38.1795 16.0473 38.3688 16.4239C38.4984 16.7014 38.8373 17.1474 39.1164 17.415C39.3855 17.6926 39.834 18.0295 40.1131 18.1584C40.4719 18.3269 40.8308 18.4062 41.4089 18.4359C42.1066 18.4656 42.286 18.4458 42.8043 18.208C43.1332 18.0692 43.4821 17.871 43.5818 17.7818C43.6814 17.6926 43.7612 17.5538 43.7512 17.4943C43.7512 17.3952 43.4023 17.3556 42.4056 17.3457C41.3291 17.3258 41.0301 17.2862 40.9603 17.1673C40.9105 17.088 40.8607 16.414 40.8607 15.6805C40.8607 14.7588 40.8906 14.3029 40.9803 14.2236C41.07 14.1244 41.9372 14.0947 44.5984 14.0947C47.7481 14.0848 48.097 14.1046 48.2365 14.2533C48.3561 14.3921 48.3761 14.6299 48.3262 15.6211C48.2764 16.4635 48.1966 16.9988 48.0471 17.415C47.9275 17.7421 47.6783 18.2773 47.4989 18.6044C47.2996 18.9513 46.8311 19.5163 46.3826 19.9425C45.8045 20.4975 45.3659 20.7948 44.7479 21.1021C44.2795 21.3301 43.6117 21.5877 43.2528 21.677C42.7744 21.7959 42.276 21.8256 41.359 21.7959C40.6713 21.7761 39.9337 21.7166 39.7144 21.667C39.4951 21.6076 38.9071 21.3697 38.4187 21.1318C37.8406 20.8543 37.3123 20.4975 36.9335 20.1407C36.6146 19.8433 36.186 19.3775 35.9767 19.1C35.7773 18.8324 35.5182 18.426 35.4085 18.208C35.2889 17.9899 35.1095 17.5439 34.9899 17.2168C34.8803 16.8897 34.7308 16.305 34.661 15.9283C34.5812 15.403 34.5812 15.0264 34.6709 14.3425C34.7308 13.8568 34.8703 13.163 34.9899 12.8062C35.0995 12.4494 35.3886 11.825 35.6278 11.4186C35.877 10.9825 36.3455 10.4077 36.7442 10.031C37.2027 9.58502 37.6911 9.23812 38.2692 8.9606C38.7376 8.72272 39.2958 8.48485 39.5151 8.42538Z" fill="white"/>
<path d="M52.3535 15.0694C52.3435 10.5398 52.3734 8.63685 52.4532 8.49809C52.5628 8.31969 52.7223 8.30978 56.6494 8.30978C58.9021 8.30978 60.756 8.33951 60.7759 8.38907C60.8058 8.42871 60.8357 9.09278 60.8557 9.86587C60.8756 10.9264 60.8557 11.303 60.756 11.4021C60.6563 11.5013 60.0184 11.5409 55.9019 11.6301V13.2159L58.0449 13.2457C59.54 13.2655 60.2277 13.315 60.3174 13.3943C60.4071 13.4835 60.447 13.88 60.447 14.8513C60.447 15.8226 60.4071 16.2191 60.3174 16.3083C60.2277 16.3876 59.54 16.4371 55.9019 16.4867L55.872 17.4283C55.862 18.1023 55.882 18.3897 55.9717 18.4392C56.0414 18.4789 57.1677 18.5185 58.4635 18.5185C60.7361 18.5185 60.8357 18.5284 60.9354 18.7168C60.9852 18.8258 61.0351 19.47 61.0351 20.1539C61.0351 21.155 61.0052 21.4226 60.8756 21.5415C60.746 21.6704 60.138 21.6902 56.6694 21.6902C53.5297 21.6902 52.5828 21.6605 52.4831 21.5713C52.3834 21.4721 52.3635 20.0746 52.3535 15.0694Z" fill="white"/>
<path d="M65.0352 15.0601C65.0352 9.17281 65.0452 8.60786 65.1947 8.45919C65.3342 8.33034 65.6034 8.31052 68.4839 8.36007L68.9923 9.15299C69.2813 9.58909 69.6202 10.0747 69.7398 10.2333C69.8694 10.3919 70.0687 10.7091 70.1883 10.9271C70.298 11.1551 70.7565 11.8885 71.195 12.5724C71.6436 13.2563 72.0821 13.9204 72.1918 14.0492C72.2915 14.188 72.421 14.2574 72.4908 14.2276C72.5905 14.1781 72.6204 13.4942 72.6204 11.3632C72.6204 9.29175 72.6503 8.52857 72.74 8.43936C72.8197 8.35016 73.2882 8.31052 74.3049 8.31052C75.3714 8.3006 75.79 8.34025 75.8897 8.42945C75.9893 8.52857 76.0093 9.93599 76.0093 15.0502C75.9993 18.6184 75.9794 21.572 75.9495 21.6215C75.9295 21.6612 75.3016 21.6909 73.2184 21.6909L72.9194 21.2746C72.7599 21.0367 72.132 20.0952 71.524 19.1635C70.916 18.2417 70.3379 17.32 70.2282 17.1316C70.1186 16.9433 69.7697 16.3883 69.4408 15.8927C69.1218 15.407 68.7829 14.9908 68.6932 14.9809C68.5537 14.9511 68.5338 15.2485 68.5338 18.1723C68.5338 19.9465 68.5138 21.4629 68.4839 21.5422C68.4441 21.6612 68.1749 21.6909 66.939 21.6909C66.1117 21.6909 65.3542 21.6512 65.2445 21.5918C65.0453 21.4927 65.0452 21.3937 65.0352 15.075V15.0601Z" fill="white"/>
<path d="M80.1389 8.45596C80.2186 8.37667 80.727 8.32712 81.5144 8.30729C82.2022 8.28747 84.0162 8.28747 85.5512 8.30729C87.0862 8.32712 88.3719 8.36676 88.4118 8.40641C88.4517 8.44605 88.4915 9.11012 88.5115 9.88321C88.5314 10.9437 88.5115 11.3204 88.4118 11.4195C88.3121 11.5186 87.6742 11.5582 85.9299 11.5979L85.9104 11.5983C83.6074 11.6475 83.5774 11.6481 83.4979 11.8754C83.4481 11.9944 83.4082 12.3016 83.4082 12.5692C83.3982 12.8269 83.458 13.0846 83.5278 13.154C83.6175 13.2333 84.3053 13.2828 87.9433 13.3324V16.405L85.7804 16.4545C84.5943 16.4843 83.5876 16.5437 83.5378 16.5834C83.4979 16.6329 83.458 17.0393 83.458 17.4952C83.458 17.9512 83.4979 18.3575 83.5378 18.4071C83.5876 18.4467 84.7339 18.5062 88.5414 18.5855L88.5713 20.0722C88.5813 21.1823 88.5613 21.5787 88.4716 21.6283C88.4018 21.6679 86.528 21.7076 84.3053 21.7076C81.1755 21.7076 80.2386 21.6779 80.1389 21.5887C80.0392 21.4895 80.0193 20.0821 80.0093 15.0174C80.0093 9.8733 80.0392 8.55508 80.1389 8.45596Z" fill="white"/>
<path d="M95.3451 8.51517C95.6441 8.37641 96.0727 8.22774 96.292 8.17818C96.5113 8.13853 97.2489 8.11871 97.9366 8.14845C98.744 8.18809 99.2324 8.24756 99.332 8.33676C99.4118 8.40614 99.641 8.50526 99.8304 8.56473C100.02 8.62419 100.399 8.84225 100.678 9.05039C100.947 9.25853 101.405 9.71445 101.694 10.0713C102.053 10.5074 102.223 10.8047 102.223 10.9831C102.223 11.2309 102.093 11.3399 101.026 11.9544C100.269 12.3905 99.7208 12.6482 99.5314 12.6482C99.2922 12.6482 99.1726 12.5689 98.9334 12.2022C98.7639 11.9544 98.4848 11.6868 98.3054 11.6075C98.136 11.5183 97.817 11.4589 97.6077 11.4589C97.4083 11.4589 97.1193 11.5183 96.9598 11.5976C96.8103 11.667 96.6309 11.8058 96.5611 11.895C96.5013 11.9842 96.4615 12.1626 96.4913 12.3013C96.5212 12.4401 96.6807 12.6284 96.8601 12.7474C97.0396 12.8465 97.4781 13.0546 97.8369 13.1934C98.1958 13.3321 98.5646 13.4412 98.6543 13.4412C98.7539 13.4412 99.2623 13.6493 99.7905 13.907C100.319 14.1746 101.007 14.5809 101.306 14.8287C101.654 15.1062 101.973 15.4928 102.183 15.8694C102.382 16.2361 102.561 16.7317 102.631 17.1579C102.721 17.6832 102.721 18.0202 102.631 18.5455C102.561 18.9221 102.392 19.4573 102.242 19.725C102.093 19.9926 101.744 20.4088 101.475 20.6566C101.196 20.8945 100.797 21.1819 100.578 21.3009C100.359 21.4099 99.9301 21.5784 99.6311 21.6775C99.2224 21.8163 98.7739 21.8658 97.8569 21.8658C97.0495 21.8658 96.4315 21.8163 96.0129 21.7072C95.674 21.618 95.1258 21.4099 94.7969 21.2414C94.468 21.0828 93.9596 20.7161 93.6706 20.4386C93.3716 20.1611 93.0028 19.6952 92.8433 19.4078C92.6838 19.1303 92.5642 18.7933 92.5742 18.6743C92.5941 18.5158 92.9031 18.2779 93.7204 17.7823C94.3384 17.4156 94.9464 17.0786 95.066 17.0489C95.2454 17.0092 95.3351 17.0588 95.4847 17.2768C95.5843 17.4255 95.7837 17.6832 95.9332 17.8319C96.0727 17.9905 96.3717 18.2085 96.591 18.3175C96.8701 18.4662 97.1891 18.5257 97.6874 18.5356C98.2057 18.5455 98.4649 18.4959 98.6642 18.3671C98.8137 18.2779 98.9932 18.0797 99.053 17.9409C99.1427 17.7625 99.1526 17.6138 99.0829 17.4354C99.0231 17.2967 98.8735 17.0984 98.734 16.9993C98.5945 16.8903 97.8768 16.6029 97.1392 16.3551C96.4016 16.1073 95.5245 15.7604 95.2056 15.582C94.8766 15.4135 94.3882 15.0765 94.1191 14.8287C93.85 14.5809 93.5111 14.1449 93.3716 13.8376C93.1224 13.3321 93.1024 13.1934 93.1024 10.7056L93.5011 10.1307C93.7204 9.81357 94.0992 9.37746 94.3484 9.15941C94.5976 8.94136 95.0461 8.65393 95.3451 8.51517Z" fill="white"/>
<path d="M106.698 15.0425C106.698 9.22452 106.708 8.61991 106.857 8.48115C106.987 8.3523 107.286 8.32257 108.432 8.32257C109.638 8.31265 109.867 8.34239 109.997 8.48115C110.127 8.62982 110.147 9.46238 110.176 14.4577C110.196 17.6492 110.176 20.583 110.047 21.6534L108.502 21.6733C107.386 21.6931 106.917 21.6633 106.827 21.5741C106.728 21.475 106.698 20.1568 106.698 15.0425Z" fill="white"/>
<path d="M116.984 8.56253C117.283 8.42377 117.711 8.26519 117.931 8.21563C118.15 8.16608 118.618 8.12643 118.977 8.11652C119.336 8.11652 119.914 8.15616 120.273 8.20572C120.632 8.25528 121.16 8.41386 121.439 8.55262C121.728 8.69138 121.987 8.80041 122.017 8.80041C122.047 8.80041 122.276 8.9689 122.526 9.17704C122.775 9.37527 123.203 9.8312 123.473 10.188C123.742 10.5448 123.961 10.9115 123.961 11.0107C123.961 11.0999 123.811 11.2882 123.632 11.4269C123.463 11.5558 123.283 11.6747 123.233 11.6747C123.193 11.6747 122.795 11.8928 122.336 12.1703C121.888 12.4379 121.409 12.6659 121.27 12.6559C121.1 12.6559 120.931 12.5271 120.722 12.2397C120.552 12.0117 120.263 11.7441 120.074 11.6549C119.884 11.5657 119.535 11.4864 119.296 11.4765C119.067 11.4765 118.748 11.5459 118.579 11.6252C118.389 11.7144 118.26 11.8729 118.22 12.0514C118.19 12.2099 118.22 12.3983 118.3 12.5172C118.379 12.6262 118.668 12.8244 118.937 12.9533C119.207 13.0821 119.535 13.2209 119.675 13.2605C119.815 13.3101 120.263 13.4588 120.672 13.6074C121.08 13.7561 121.728 14.0336 122.107 14.2319C122.486 14.44 123.024 14.8266 123.293 15.0942C123.562 15.3717 123.901 15.8376 124.041 16.1349C124.24 16.571 124.3 16.8882 124.34 17.6712C124.38 18.4641 124.35 18.7614 124.21 19.1579C124.11 19.4354 123.901 19.8319 123.762 20.0499C123.612 20.268 123.323 20.595 123.104 20.7734C122.894 20.9518 122.466 21.2095 122.167 21.3582C121.868 21.497 121.379 21.6754 121.09 21.7448C120.801 21.8241 120.084 21.8835 119.476 21.8835C118.798 21.8835 118.14 21.8241 117.751 21.7249C117.412 21.6357 116.894 21.4474 116.595 21.2987C116.306 21.16 115.768 20.7933 115.419 20.4959C114.901 20.0697 114.701 19.812 114.183 18.6623L114.412 18.4343C114.542 18.3055 114.96 18.0379 115.339 17.8298C115.718 17.6216 116.226 17.3441 116.884 16.9774L117.412 17.5621C117.692 17.8793 118.11 18.2361 118.329 18.3451C118.609 18.4839 118.937 18.5434 119.426 18.5533C119.944 18.5632 120.203 18.5136 120.403 18.3848C120.552 18.2956 120.742 18.1172 120.821 17.9883C120.931 17.8397 120.951 17.6811 120.901 17.4829C120.851 17.2945 120.682 17.126 120.423 16.9774C120.203 16.8485 119.396 16.5413 118.628 16.2737C117.861 16.016 117.143 15.7583 117.034 15.6988C116.924 15.6294 116.655 15.4708 116.436 15.3222C116.216 15.1834 115.877 14.896 115.678 14.6878C115.479 14.4698 115.2 14.1129 115.05 13.8751C114.861 13.5777 114.771 13.2605 114.731 12.7452C114.691 12.3487 114.691 11.6846 114.791 10.5349L115.618 9.67261C116.206 9.0581 116.595 8.74094 116.984 8.56253Z" fill="white"/>
</svg>
