<svg width="40" height="40" viewBox="0 0 40 40" fill="none" xmlns="http://www.w3.org/2000/svg">
<rect width="40" height="40" rx="20" fill="#0B273E"/>
<path d="M17.2209 9.3916C17.5499 9.30239 18.1977 9.17355 18.6662 9.10417C19.1347 9.02487 19.9221 8.98523 20.4105 9.00505C20.8989 9.02487 21.5568 9.08434 21.8558 9.14381C22.1548 9.20328 22.5834 9.29248 22.8027 9.36186C23.022 9.42133 23.63 9.62947 24.1483 9.81779C24.6666 10.0061 25.2048 10.244 25.3444 10.3431C25.4839 10.4422 25.7032 10.5413 25.8427 10.5611C26.0321 10.581 26.1218 10.5215 26.2614 10.244C26.3611 10.0557 26.5205 9.71867 26.6102 9.51053C26.7099 9.29248 26.8495 9.10417 26.9093 9.08434C27.0089 9.06452 27.0388 9.27266 27.0388 9.9169C27.0388 10.4026 26.979 11.2153 26.8993 11.7307C26.8195 12.2461 26.6302 13.0985 26.4906 13.6139C26.3511 14.1293 26.2016 14.6645 26.1717 14.8032C26.1517 14.942 25.9325 15.4475 25.6932 15.943C25.464 16.4386 25.2447 16.9441 25.2148 17.0829C25.1849 17.2216 24.6965 18.0245 24.1383 18.8669C23.5802 19.7094 22.7529 20.8195 22.3143 21.3349C21.8658 21.8503 21.1681 22.5639 20.7594 22.9108C20.3507 23.2676 19.6929 23.7929 19.3141 24.0803C18.9354 24.3678 18.2775 24.7741 17.8688 24.9922C17.4602 25.2003 16.6927 25.5274 16.1744 25.7058C15.357 25.9833 15.0879 26.023 14.2307 26.023C13.6028 26.0329 12.9748 25.9635 12.5363 25.8545C12.1575 25.7554 11.5994 25.5571 11.3003 25.4184C10.9415 25.2499 10.5428 24.9228 10.1142 24.4669C9.76536 24.0902 9.37663 23.5451 9.23709 23.2775C9.10751 23.0099 8.93807 22.4251 8.84836 21.989C8.76862 21.5529 8.69885 20.7501 8.69885 20.205C8.69885 19.6598 8.74869 18.9462 8.80849 18.6191C8.8683 18.2921 8.97794 17.846 9.03774 17.6379C9.09755 17.4199 9.19722 17.2315 9.24706 17.2117C9.30686 17.1919 9.37663 17.5586 9.40653 18.0938C9.4464 18.6092 9.55604 19.194 9.64575 19.4121C9.74542 19.6301 9.94477 19.9968 10.1043 20.2248C10.2637 20.4627 10.6325 20.8294 10.9116 21.0375C11.2007 21.2556 11.7289 21.5232 12.0878 21.6421C12.4466 21.7511 13.0546 21.8998 13.4333 21.9593C13.9716 22.0485 14.3304 22.0485 14.9783 21.9494C15.4468 21.88 16.0946 21.7313 16.4236 21.6223C16.7525 21.5133 17.4303 21.2358 17.9187 20.9979C18.4071 20.76 19.0649 20.3834 19.364 20.1554C19.663 19.9374 20.0816 19.6004 20.281 19.4121C20.4903 19.2237 20.6597 19.0255 20.6597 18.966C20.6597 18.9066 20.6199 18.8669 20.5601 18.8669C20.5002 18.8669 20.2012 19.0255 19.8922 19.2138C19.5733 19.4021 18.9354 19.6995 18.4669 19.868C17.6894 20.1554 17.52 20.1851 16.4236 20.1752C15.6162 20.1752 15.078 20.1257 14.7789 20.0266C14.5298 19.9473 14.1311 19.7689 13.8918 19.64C13.6427 19.5211 13.224 19.1841 12.9449 18.9165C12.6659 18.6489 12.317 18.1731 12.1675 17.8758C12.008 17.5784 11.8186 17.0036 11.7389 16.617C11.6592 16.2206 11.5894 15.7151 11.5894 15.497C11.5894 15.279 11.6293 15.0213 11.6791 14.9321C11.7289 14.833 11.8685 14.4167 11.998 14.0103C12.1276 13.604 12.3967 13.0192 12.5961 12.7218C12.7855 12.4245 13.1941 11.9091 13.4932 11.5919C13.7922 11.2748 14.2806 10.8387 14.5796 10.6404C14.8786 10.4422 15.4667 10.1151 15.8753 9.9169C16.284 9.71867 16.892 9.4808 17.2209 9.3916Z" fill="white"/>
<path d="M27.5472 13.1283C27.6269 12.7318 27.6967 12.3651 27.7166 12.3156C27.7365 12.266 27.8362 12.266 27.9459 12.3255C28.0455 12.375 28.3446 12.6823 28.6137 12.9895C28.8728 13.3067 29.2616 13.8518 29.4709 14.2086C29.6901 14.5654 29.9194 14.9223 29.9892 15.0016C30.0589 15.0808 30.2683 15.5764 30.4576 16.0918C30.657 16.6072 30.8763 17.3208 30.956 17.6776C31.0457 18.0344 31.1653 18.7877 31.2351 19.3626C31.3248 20.1952 31.3248 20.5916 31.2251 21.3449C31.1553 21.8603 31.0258 22.6036 30.9261 22.9803C30.8264 23.3569 30.6271 23.9615 30.4776 24.3183C30.3281 24.6751 30.049 25.25 29.8496 25.6068C29.6602 25.9636 29.2815 26.5385 29.0223 26.8953C28.7632 27.2521 28.2449 27.8369 27.8661 28.1937C27.4973 28.5505 26.9192 29.0362 26.5903 29.2641C26.2614 29.4921 25.9125 29.6705 25.8228 29.6705C25.7231 29.6705 25.6434 29.6407 25.6434 29.5912C25.6534 29.5515 25.9125 29.2542 26.2215 28.9271C26.5305 28.6 27.0488 27.9558 27.3578 27.49C27.6668 27.0241 28.0954 26.2907 28.3047 25.8546C28.514 25.4185 28.7732 24.7941 28.8728 24.467C28.9725 24.1399 29.1021 23.7732 29.1419 23.6443C29.1918 23.5254 29.2316 23.2677 29.2316 23.0794C29.2316 22.8911 29.2017 22.7325 29.1619 22.7325C29.112 22.7325 28.9227 23.0794 28.7333 23.5056C28.5539 23.9219 28.1452 24.6949 27.8462 25.2103C27.5472 25.7257 27.0588 26.4691 26.7498 26.8457C26.4408 27.2224 25.9424 27.7873 25.6434 28.0946C25.3444 28.4018 24.6666 28.9271 24.1483 29.2641C23.63 29.6011 22.8625 30.0075 22.4538 30.1661C22.0452 30.3345 21.6365 30.503 21.5568 30.5526C21.477 30.5922 21.1382 30.7112 20.8092 30.8103C20.3607 30.9491 19.8524 30.9887 18.7161 30.9986C17.6994 31.0085 17.0914 30.9689 16.8223 30.8797C16.603 30.8004 16.0647 30.6022 15.6262 30.4337C15.1876 30.2652 14.5796 29.9777 14.2806 29.7894C13.9816 29.6011 13.543 29.2839 13.3038 29.0857C13.0646 28.8875 12.9051 28.6892 12.9549 28.6496C12.9948 28.61 13.3038 28.6199 13.6327 28.6793C13.9616 28.7289 14.5597 28.7785 14.9584 28.7785C15.3471 28.7785 15.9152 28.7289 16.2043 28.6694C16.4834 28.61 16.9718 28.4811 17.2708 28.382C17.5698 28.2928 18.0881 28.0747 18.417 27.9162C18.746 27.7576 19.2643 27.4701 19.5633 27.2719C19.8623 27.0638 20.4205 26.6475 20.7993 26.3303C21.178 26.0132 21.8458 25.3293 22.2744 24.8139C22.713 24.2985 23.331 23.4858 23.6599 23.01C23.9789 22.5243 24.248 22.118 24.248 22.0882C24.248 22.0585 24.3476 21.8702 24.4772 21.672C24.6068 21.4638 24.7862 21.0773 24.8959 20.7998C24.9955 20.5321 25.155 20.1952 25.2447 20.0564C25.3444 19.9176 25.5238 19.5906 25.6434 19.313C25.763 19.0454 25.9225 18.6886 25.9923 18.5201C26.062 18.3516 26.2913 17.7272 26.5006 17.1325C26.6999 16.5378 26.9093 15.8638 26.9491 15.6458C26.989 15.4277 27.1086 14.9322 27.2182 14.5555C27.3179 14.1789 27.4674 13.5347 27.5472 13.1283Z" fill="white"/>
</svg>
